<?xml version="1.0" encoding="iso-8859-1"?>
<!-- Generator: Adobe Illustrator 19.0.0, SVG Export Plug-In . SVG Version: 6.00 Build 0)  -->
<svg version="1.1" id="Layer_1" xmlns="http://www.w3.org/2000/svg" xmlns:xlink="http://www.w3.org/1999/xlink" x="0px" y="0px"
	 viewBox="0 0 491.52 491.52" style="enable-background:new 0 0 491.52 491.52;" xml:space="preserve">
<g>
	<g>
		<path d="M491.52,122.88V0H0v122.88h71.68v30.72H0v122.88h71.68v30.72H0v122.88h71.68v40.96H30.72v20.48H460.8v-20.48h-40.96
			v-40.96h71.68V307.2h-71.68v-30.72h71.68V153.6h-71.68v-30.72H491.52z M399.36,471.04L399.36,471.04H92.16v-40.96h307.2V471.04z
			 M471.04,327.68v81.92H20.48v-81.92H471.04z M92.16,307.2v-30.72h307.2v30.72H92.16z M471.04,174.08V256H20.48v-81.92H471.04z
			 M92.16,153.6v-30.72h307.2v30.72H92.16z M20.48,102.4V20.48h450.56v81.92C471.04,102.4,20.48,102.4,20.48,102.4z"/>
	</g>
</g>
<g>
	<g>
		<path d="M71.68,30.72c-16.94,0-30.72,13.78-30.72,30.72s13.78,30.72,30.72,30.72s30.72-13.78,30.72-30.72S88.62,30.72,71.68,30.72
			z M71.68,71.68c-5.645,0-10.24-4.59-10.24-10.24c0-5.65,4.595-10.24,10.24-10.24c5.645,0,10.24,4.59,10.24,10.24
			S77.325,71.68,71.68,71.68z"/>
	</g>
</g>
<g>
	<g>
		<rect x="419.84" y="51.2" width="20.48" height="20.48"/>
	</g>
</g>
<g>
	<g>
		<rect x="368.64" y="51.2" width="20.48" height="20.48"/>
	</g>
</g>
<g>
	<g>
		<rect x="266.24" y="51.2" width="20.48" height="20.48"/>
	</g>
</g>
<g>
	<g>
		<rect x="317.44" y="51.2" width="20.48" height="20.48"/>
	</g>
</g>
<g>
	<g>
		<path d="M71.68,184.32c-16.94,0-30.72,13.78-30.72,30.72s13.78,30.72,30.72,30.72s30.72-13.78,30.72-30.72
			S88.62,184.32,71.68,184.32z M71.68,225.28c-5.645,0-10.24-4.59-10.24-10.24c0-5.65,4.595-10.24,10.24-10.24
			c5.645,0,10.24,4.59,10.24,10.24S77.325,225.28,71.68,225.28z"/>
	</g>
</g>
<g>
	<g>
		<rect x="368.64" y="204.8" width="20.48" height="20.48"/>
	</g>
</g>
<g>
	<g>
		<rect x="419.84" y="204.8" width="20.48" height="20.48"/>
	</g>
</g>
<g>
	<g>
		<rect x="317.44" y="204.8" width="20.48" height="20.48"/>
	</g>
</g>
<g>
	<g>
		<rect x="266.24" y="204.8" width="20.48" height="20.48"/>
	</g>
</g>
<g>
	<g>
		<path d="M71.68,337.92c-16.94,0-30.72,13.78-30.72,30.72s13.78,30.72,30.72,30.72s30.72-13.78,30.72-30.72
			S88.62,337.92,71.68,337.92z M71.68,378.88c-5.645,0-10.24-4.59-10.24-10.24c0-5.65,4.595-10.24,10.24-10.24
			c5.645,0,10.24,4.59,10.24,10.24C81.92,374.29,77.325,378.88,71.68,378.88z"/>
	</g>
</g>
<g>
	<g>
		<rect x="266.24" y="358.4" width="20.48" height="20.48"/>
	</g>
</g>
<g>
	<g>
		<rect x="419.84" y="358.4" width="20.48" height="20.48"/>
	</g>
</g>
<g>
	<g>
		<rect x="317.44" y="358.4" width="20.48" height="20.48"/>
	</g>
</g>
<g>
	<g>
		<rect x="368.64" y="358.4" width="20.48" height="20.48"/>
	</g>
</g>
<g>
</g>
<g>
</g>
<g>
</g>
<g>
</g>
<g>
</g>
<g>
</g>
<g>
</g>
<g>
</g>
<g>
</g>
<g>
</g>
<g>
</g>
<g>
</g>
<g>
</g>
<g>
</g>
<g>
</g>
</svg>
