<?xml version="1.0" encoding="iso-8859-1"?>
<!-- Generator: Adobe Illustrator 19.0.0, SVG Export Plug-In . SVG Version: 6.00 Build 0)  -->
<svg version="1.1" id="Layer_1" xmlns="http://www.w3.org/2000/svg" xmlns:xlink="http://www.w3.org/1999/xlink" x="0px" y="0px"
	 viewBox="0 0 491.52 491.52" style="enable-background:new 0 0 491.52 491.52;" xml:space="preserve">
<g>
	<g>
		<path d="M491.52,399.36V20.48H0v378.88h153.6v51.2h-40.96v20.48h266.24v-20.48h-40.96v-51.2H491.52z M20.48,40.96h450.56v276.48
			H20.48V40.96z M317.44,450.56H174.08v-51.2h143.36V450.56z M20.48,378.88v-40.96h450.56v40.96H20.48z"/>
	</g>
</g>
<g>
	<g>
		<rect x="307.2" y="61.44" width="133.12" height="20.48"/>
	</g>
</g>
<g>
	<g>
		<rect x="235.52" y="61.44" width="51.2" height="20.48"/>
	</g>
</g>
<g>
	<g>
		<rect x="194.56" y="61.44" width="20.48" height="20.48"/>
	</g>
</g>
<g>
	<g>
		<rect x="153.6" y="61.44" width="20.48" height="20.48"/>
	</g>
</g>
<g>
	<g>
		<rect x="317.44" y="215.04" width="122.88" height="20.48"/>
	</g>
</g>
<g>
	<g>
		<rect x="276.48" y="215.04" width="20.48" height="20.48"/>
	</g>
</g>
<g>
	<g>
		<rect x="235.52" y="215.04" width="20.48" height="20.48"/>
	</g>
</g>
<g>
	<g>
		<rect x="337.92" y="163.84" width="102.4" height="20.48"/>
	</g>
</g>
<g>
	<g>
		<rect x="194.56" y="163.84" width="122.88" height="20.48"/>
	</g>
</g>
<g>
	<g>
		<rect x="225.28" y="112.64" width="40.96" height="20.48"/>
	</g>
</g>
<g>
	<g>
		<rect x="286.72" y="112.64" width="153.6" height="20.48"/>
	</g>
</g>
<g>
	<g>
		<rect x="51.2" y="112.64" width="153.6" height="20.48"/>
	</g>
</g>
<g>
	<g>
		<rect x="245.76" y="266.24" width="194.56" height="20.48"/>
	</g>
</g>
<g>
	<g>
		<polygon points="176.2,202.68 161.72,217.16 190.32,245.76 161.72,274.36 176.2,288.84 219.28,245.76 		"/>
	</g>
</g>
<g>
	<g>
		<polygon points="94.28,217.16 79.8,202.68 36.72,245.76 79.8,288.84 94.28,274.36 65.68,245.76 		"/>
	</g>
</g>
<g>
	<g>
		
			<rect x="72.86" y="235.538" transform="matrix(0.3711 -0.9286 0.9286 0.3711 -147.7282 273.431)" width="110.281" height="20.48"/>
	</g>
</g>
<g>
</g>
<g>
</g>
<g>
</g>
<g>
</g>
<g>
</g>
<g>
</g>
<g>
</g>
<g>
</g>
<g>
</g>
<g>
</g>
<g>
</g>
<g>
</g>
<g>
</g>
<g>
</g>
<g>
</g>
</svg>
