<?xml version="1.0" encoding="iso-8859-1"?>
<!-- Generator: Adobe Illustrator 16.0.0, SVG Export Plug-In . SVG Version: 6.00 Build 0)  -->
<!DOCTYPE svg PUBLIC "-//W3C//DTD SVG 1.1//EN" "http://www.w3.org/Graphics/SVG/1.1/DTD/svg11.dtd">
<svg version="1.1" id="Capa_1" xmlns="http://www.w3.org/2000/svg" xmlns:xlink="http://www.w3.org/1999/xlink" x="0px" y="0px"
	 width="422.062px" height="422.062px" viewBox="0 0 422.062 422.062" style="enable-background:new 0 0 422.062 422.062;"
	 xml:space="preserve">
<g>
	<g>
		<path d="M354.739,61.293C315.214,21.767,262.664,0,206.768,0c-51.88,0-101.645,19.125-140.129,53.849
			C37.7,79.961,16.861,113.285,6.031,150.051l34.614,7.464c22.1-71.52,88.559-122.175,166.123-122.175
			c95.901,0,173.924,78.021,173.924,173.921c0,95.904-78.023,173.925-173.924,173.925v35.341c55.896,0,108.447-21.77,147.971-61.293
			c39.523-39.523,61.292-92.073,61.292-147.973C416.031,153.365,394.262,100.817,354.739,61.293z"/>
		<path d="M206.768,102.486c58.876,0,106.777,47.899,106.777,106.775c0,58.877-47.899,106.779-106.777,106.779v35.343
			c78.364,0,142.119-63.758,142.119-142.122S285.131,67.146,206.768,67.146c-33.75,0-66.463,12.04-92.12,33.896
			c-19.817,16.887-34.55,38.837-42.703,63.222l34.798,7.503C122.026,130.663,161.385,102.486,206.768,102.486z"/>
		<path d="M206.768,164.908c24.457,0,44.356,19.898,44.356,44.354c0,24.46-19.899,44.358-44.356,44.358v35.343
			c43.945,0,79.695-35.754,79.695-79.701c0-43.942-35.75-79.695-79.695-79.695c-31.804,0-60.575,19.1-73.117,48.003l35.801,7.72
			C177.499,172.806,191.507,164.908,206.768,164.908z"/>
		<circle cx="169.622" cy="271.291" r="21.203"/>
		<circle cx="169.622" cy="334.296" r="21.206"/>
		<circle cx="169.622" cy="400.857" r="21.204"/>
	</g>
</g>
<g>
</g>
<g>
</g>
<g>
</g>
<g>
</g>
<g>
</g>
<g>
</g>
<g>
</g>
<g>
</g>
<g>
</g>
<g>
</g>
<g>
</g>
<g>
</g>
<g>
</g>
<g>
</g>
<g>
</g>
</svg>
