<svg id="regular" enable-background="new 0 0 24 24" height="512" viewBox="0 0 24 24" width="512" xmlns="http://www.w3.org/2000/svg"><path d="m23.25 0h-5.51c-.265 0-.51.14-.645.367l-8.186 13.785c-.141.238-.14.534.003.771l5.274 8.715c.137.225.38.362.643.362h5.51c.582 0 .945-.638.642-1.138l-5.042-8.331 7.956-13.398c.296-.498-.063-1.133-.645-1.133zm-8.831 14.152c-.141.238-.14.534.003.771l4.585 7.577h-3.757l-4.823-7.969 7.74-13.031h3.766z"/><path d="m.75 17.152h5.003c.266 0 .512-.141.646-.37l3.801-6.47c.134-.228.138-.509.011-.741l-2.894-5.269c-.131-.24-.383-.389-.657-.389h-5.002c-.572 0-.931.615-.658 1.111l2.689 4.896-3.586 6.103c-.293.499.067 1.129.647 1.129zm4.448-6.84c.134-.228.138-.509.011-.741l-2.284-4.158h3.291l2.476 4.506-3.368 5.733h-3.263z"/></svg>